<svg width="84" height="65" viewBox="0 0 84 65" fill="none" xmlns="http://www.w3.org/2000/svg">
<circle cx="41.5" cy="32.5" r="31" fill="#334A52" stroke="#29AFCF" stroke-width="3"/>
<path d="M21.792 46L26.832 20.872H32.052L27.948 41.392H37.164L36.228 46H21.792ZM40.1436 46L45.1836 20.872H54.6516C57.1716 20.872 59.1156 21.46 60.4836 22.636C61.8756 23.812 62.5716 25.468 62.5716 27.604C62.5716 28.972 62.3316 30.232 61.8516 31.384C61.3716 32.512 60.6996 33.484 59.8356 34.3C58.9716 35.092 57.9396 35.716 56.7396 36.172C55.5396 36.604 54.2316 36.82 52.8156 36.82H47.1996L45.3636 46H40.1436ZM48.1356 32.212H53.4996C54.3156 32.212 55.0116 31.996 55.5876 31.564C56.1876 31.132 56.5836 30.472 56.7756 29.584C56.8956 29.032 56.9916 28.588 57.0636 28.252C57.1356 27.892 57.1716 27.616 57.1716 27.424C57.1716 26.872 56.9796 26.416 56.5956 26.056C56.2356 25.672 55.6596 25.48 54.8676 25.48H49.4676L48.1356 32.212Z" fill="#37D2F6"/>
<line x1="1.5" y1="32.5" x2="24.5" y2="32.5" stroke="#37D2F6" stroke-width="3" stroke-linecap="round"/>
<line x1="59.5" y1="32.5" x2="82.5" y2="32.5" stroke="#37D2F6" stroke-width="3" stroke-linecap="round"/>
</svg>
